Coordinates
version=1
nRows=10
nColumns=33
inDegrees=yes

Units are S.I. units (second, meters, Newtons, ...)
Angles are in degrees.

endheader
time	ground_thorax_rot_x	ground_thorax_rot_y	ground_thorax_rot_z	ground_thorax_tx	ground_thorax_ty	ground_thorax_tz	clav_prot_r	clav_elev_r	scapula_abduction_r	scapula_elevation_r	scapula_upward_rot_r	scapula_winging_r	shoulder_elv_r	plane_of_elev_r	axial_rot_r	elbow_flexion_r	pro_sup_r	wrist_flex_r	wrist_dev_r	clav_prot_l	clav_elev_l	scapula_abduction_l	scapula_elevation_l	scapula_upward_rot_l	scapula_winging_l	shoulder_elv_l	plane_of_elev_l	axial_rot_l	elbow_flexion_l	pro_sup_l	wrist_flex_l	wrist_dev_l
      7.87000000	     39.87863183	      7.45370689	      8.75727096	   -228.46107295	    845.88611299	      3.16509132	     13.31572118	     36.63198903	     37.64587792	     45.00000000	    -45.00000000	  -1885.16473894	  -3704.10851320	    142.78186919	    179.99999979	   1092.95163406	     46.96194322	     22.72420357	      7.67690521	      8.72004513	    -45.00000000	    -39.06881897	     45.00000000	    -45.00000000	   1177.23339883	  -1170.45459176	    135.24732356	   -179.99999979	   -348.08781056	     38.69407657	      5.20714782	    -22.97644162
      7.88000000	     39.89817780	      7.33290142	      8.53270398	   -229.90564989	    846.40792327	      3.31078960	     13.33620835	     36.47963573	     37.48430196	     45.00000000	    -45.00000000	  -1885.24495615	  -3704.04744604	    142.72209639	    179.99999979	   1092.94475214	     47.60851031	     22.66187432	      7.42390553	      8.77014407	    -45.00000000	    -39.08447832	     45.00000000	    -45.00000000	   1177.33083664	  -1170.47293441	    135.20100308	   -179.99999979	   -348.09148311	     39.46683107	      5.10361047	    -23.02616976
      7.89000000	     39.80897382	      7.15392538	      8.40668850	   -231.33700867	    846.90540038	      3.45911089	     13.15324514	     36.63750674	     37.41367797	     45.00000000	    -45.00000000	  -1885.07663745	  -3704.07654958	    142.87728953	    179.99999979	   1092.99176604	     48.31309371	     22.75465623	      7.30181677	      8.75243194	    -45.00000000	    -39.08166371	     45.00000000	    -45.00000000	   1177.39897547	  -1170.48243378	    135.33773106	   -179.99999979	   -348.06620802	     40.18852803	      4.92363266	    -23.01487622
      7.90000000	     39.83861020	      7.04675158	      8.30246557	   -232.74984401	    847.38495447	      3.60940753	     13.16749213	     36.49965336	     37.28750200	     45.00000000	    -45.00000000	  -1885.15545178	  -3704.02976429	    142.87676756	    179.99999979	   1093.00807359	     49.06739596	     22.69261286	      7.04258792	      8.80571650	    -45.00000000	    -39.07450972	     45.00000000	    -45.00000000	   1177.52731246	  -1170.55764757	    135.35143053	   -179.99999979	   -348.02949983	     40.94230496	      4.80264923	    -23.05086091
      7.91000000	     39.79960391	      6.90074165	      8.21214384	   -234.13807904	    847.85279905	      3.76123714	     13.10812889	     36.48995732	     37.18910763	     45.00000000	    -45.00000000	  -1885.13766238	  -3704.01556860	    142.90430780	    179.99999979	   1093.03883066	     49.89564448	     22.69797299	      6.85483822	      8.83675885	    -45.00000000	    -39.11356903	     45.00000000	    -45.00000000	   1177.62182166	  -1170.58484696	    135.45370717	   -179.99999979	   -348.05414223	     41.72393911	      4.65088015	    -23.04209815
      7.92000000	     39.80230737	      6.78521386	      8.04855732	   -235.49837910	    848.31404687	      3.91435161	     13.07540039	     36.43367965	     37.04938139	     45.00000000	    -45.00000000	  -1885.17283994	  -3703.97315354	    142.87908394	    179.99999979	   1093.05386239	     50.71599682	     22.66382290	      6.63915803	      8.85536137	    -45.00000000	    -39.07989500	     45.00000000	    -45.00000000	   1177.69659438	  -1170.61562432	    135.44888902	   -179.99999979	   -348.02969408	     42.49166691	      4.51856981	    -23.06255944
      7.93000000	     39.72080138	      6.58150527	      7.91808376	   -236.82517625	    848.76997485	      4.06775411	     12.98651249	     36.46813590	     36.94639651	     45.00000000	    -45.00000000	  -1885.07042547	  -3703.99021797	    142.89381430	    179.99999979	   1093.06852148	     51.49395746	     22.67891988	      6.49173867	      8.86628101	    -45.00000000	    -39.13517955	     45.00000000	    -45.00000000	   1177.78174763	  -1170.57597920	    135.54215883	   -179.99999979	   -348.04417917	     43.22364630	      4.39137714	    -23.06989616
      7.94000000	     39.76213606	      6.55037663	      7.82858176	   -238.12043178	    849.22068125	      4.22034747	     13.01997098	     36.35368091	     36.84077740	     45.00000000	    -45.00000000	  -1885.15316360	  -3703.98089887	    142.92729904	    179.99999979	   1093.07005815	     52.27393988	     22.61046226	      6.30053080	      8.91870126	    -45.00000000	    -39.10373506	     45.00000000	    -45.00000000	   1177.86129103	  -1170.69592941	    135.55469049	   -179.99999979	   -348.00496569	     43.99076583	      4.26165357	    -23.08334743
      7.95000000	     39.74572588	      6.43062980	      7.71826776	   -239.38669982	    849.66402247	      4.37028784	     12.95350381	     36.34392359	     36.69881704	     45.00000000	    -45.00000000	  -1885.13780838	  -3703.97084824	    142.92003612	    179.99999979	   1093.09798184	     53.00064096	     22.59150458	      6.14812977	      8.93632292	    -45.00000000	    -39.09364773	     45.00000000	    -45.00000000	   1177.93316221	  -1170.74783035	    135.59542382	   -179.99999979	   -347.99837946	     44.73543753	      4.13862826	    -23.09349856
      7.96000000	     39.72779657	      6.29079092	      7.58817391	   -240.62881249	    850.09755536	      4.51555286	     12.92370041	     36.30030515	     36.58545133	     45.00000000	    -45.00000000	  -1885.14513617	  -3703.94174975	    142.88789929	    179.99999979	   1093.11348106	     53.66063935	     22.54971358	      5.99690900	      8.94918385	    -45.00000000	    -39.06566194	     45.00000000	    -45.00000000	   1178.01531140	  -1170.76244019	    135.62196491	   -179.99999979	   -347.98607178	     45.43305912	      4.03124688	    -23.11155305
